<svg xmlns="http://www.w3.org/2000/svg" viewBox="0 0 511.997 511.997" style="enable-background:new 0 0 511.997 511.997;"><path d="M510.551 363.035c-.705-4.679-5.065-7.909-9.75-7.197a8.568 8.568 0 0 0-7.197 9.749c5.311 35.26-6.505 71.296-31.605 96.398-43.843 43.842-115.176 43.842-159.018 0l-34.497-34.497c-33.184-33.184-41.98-83.388-23.079-125.543l36.56 36.56c-2.992 20.816 3.871 41.703 18.835 56.668l34.497 34.496c13.012 13.012 30.1 19.518 47.194 19.517 17.089-.002 34.183-6.507 47.192-19.516 26.021-26.023 26.021-68.364 0-94.387l-34.497-34.495c-14.964-14.964-35.85-21.832-56.668-18.836l-36.56-36.56c42.155-18.901 92.36-10.105 125.544 23.081l34.497 34.496c9.004 9.004 16.346 19.357 21.823 30.773a8.567 8.567 0 0 0 11.432 4.019 8.57 8.57 0 0 0 4.021-11.432c-6.315-13.164-14.779-25.102-25.156-35.479l-34.497-34.495c-39.782-39.784-100.784-49.135-150.492-23.792l-9.682-9.682c25.342-49.709 15.991-110.709-23.792-150.492l-34.497-34.497c-50.523-50.522-132.73-50.524-183.254 0C12.18 63.611-1.578 99.268.153 135.718c.224 4.728 4.227 8.37 8.967 8.153a8.57 8.57 0 0 0 8.153-8.966c-1.504-31.638 10.434-62.582 32.749-84.897 43.841-43.842 115.175-43.843 159.017 0l34.497 34.497c33.184 33.184 41.98 83.389 23.079 125.543l-36.56-36.56c2.992-20.817-3.872-41.704-18.836-56.668l-34.497-34.497c-26.021-26.021-68.363-26.02-94.385 0-12.589 12.59-19.52 29.35-19.52 47.194s6.933 34.604 19.52 47.193l34.497 34.496c14.964 14.965 35.848 21.831 56.668 18.836l36.56 36.56c-42.155 18.902-92.361 10.105-125.544-23.081l-34.496-34.496c-12.05-12.05-20.992-26.269-26.577-42.263-1.56-4.468-6.446-6.823-10.915-5.265a8.568 8.568 0 0 0-5.265 10.916c6.44 18.447 16.749 34.843 30.637 48.732l34.497 34.496c24.918 24.919 58.158 37.903 91.737 37.903 20.032 0 40.182-4.641 58.756-14.11l9.68 9.68c-25.342 49.709-15.991 110.71 23.792 150.494l34.497 34.497c25.262 25.26 58.445 37.892 91.627 37.892s66.366-12.632 91.627-37.892c28.933-28.932 42.553-70.454 36.436-111.07zm-127.484-50.128l34.497 34.496c19.34 19.34 19.34 50.809 0 70.148-19.339 19.341-50.808 19.341-70.149-.001l-34.497-34.495a49.33 49.33 0 0 1-13.923-27.518l19.272 19.272c7.552 7.552 17.595 11.712 28.277 11.712s20.723-4.16 28.277-11.712c7.553-7.553 11.712-17.595 11.712-28.277 0-10.682-4.16-20.723-11.712-28.277l-19.274-19.273a49.326 49.326 0 0 1 27.52 13.925zM128.953 199.088l-34.497-34.497c-9.352-9.351-14.501-21.807-14.501-35.073 0-13.267 5.149-25.723 14.5-35.074 19.339-19.341 50.807-19.342 70.149 0l34.497 34.497a49.325 49.325 0 0 1 13.923 27.517l-19.274-19.274c-7.552-7.552-17.595-11.712-28.277-11.712-10.682 0-20.723 4.16-28.277 11.712-7.553 7.553-11.712 17.595-11.712 28.277s4.16 20.723 11.712 28.277l19.272 19.272a49.312 49.312 0 0 1-27.515-13.922zm20.363-17.468c-4.315-4.315-6.693-10.054-6.693-16.158s2.378-11.841 6.693-16.158 10.054-6.693 16.158-6.693 11.842 2.377 16.158 6.693l181.07 181.07a22.703 22.703 0 0 1 6.693 16.158c0 6.104-2.378 11.841-6.693 16.158-4.317 4.315-10.054 6.693-16.159 6.693s-11.842-2.376-16.158-6.693L149.316 181.62z" fill="#fff"/></svg>