<svg xmlns="http://www.w3.org/2000/svg" viewBox="0 0 512 512" width="512" height="512"><path d="M467.579 401.567V256c0-89.997-73.24-163.211-163.263-163.211h-96.941c-90.023 0-163.263 73.214-163.263 163.211v145.567H0v17.644h512v-17.644h-44.421z" fill="#334F55"/><path d="M61.756 401.567V256c0-80.266 65.323-145.567 145.619-145.567h96.941c80.296 0 145.619 65.301 145.619 145.567v145.567H61.756z" fill="#C5D35E"/><g fill="#334F55"><path d="M202.033 278.099l-88.222 8.822a8.823 8.823 0 0 0 1.757 17.559l88.222-8.822a8.823 8.823 0 0 0 7.9-9.658c-.482-4.847-4.695-8.358-9.657-7.901zM397.88 286.921l-88.222-8.822c-4.902-.465-9.167 3.054-9.658 7.9a8.824 8.824 0 0 0 7.9 9.658l88.222 8.822a8.826 8.826 0 0 0 9.659-7.901 8.825 8.825 0 0 0-7.901-9.657zM260.17 304.522h-8.65c-17.076 0-30.964 13.854-30.964 30.878v22.056a8.82 8.82 0 0 0 8.822 8.822h52.933a8.82 8.82 0 0 0 8.822-8.822V335.4c.001-17.024-13.887-30.878-30.963-30.878z"/></g><path d="M273.489 348.634H238.2V335.4c0-7.297 5.979-13.233 13.32-13.233h8.65c7.34 0 13.32 5.936 13.32 13.233l-.001 13.234z" fill="#E4AD4B"/></svg>